<svg id="a667ed8a-e0c8-48b3-8358-393aca6f1ae8" data-name="Слой 1" xmlns="http://www.w3.org/2000/svg" xmlns:xlink="http://www.w3.org/1999/xlink" viewBox="0 0 202.21 193.61"><defs><clipPath id="ef6b76f0-6d75-4343-9da5-94f523421034"><rect x="13.93" y="129.62" width="174.35" height="63.99" style="fill:none"/></clipPath><clipPath id="f4b46ee6-ad28-4a3f-b387-f2e098ae6f6f"><path d="M138.08,78.36H64.14V0h73.94Z" style="fill:none"/></clipPath></defs><title>logo</title><text transform="translate(13.44 117.97)" style="font-size:32.101261138916016px;fill:#fff;font-family:BebasNeueBold, Bebas Neue;letter-spacing:0.19998970904034663em">BEER HOUSE</text><polygon points="30.74 143.1 101.11 183.73 171.47 143.1 171.47 129.63 30.74 129.63 30.74 143.1" style="fill:#ffca00"/><g style="clip-path:url(#ef6b76f0-6d75-4343-9da5-94f523421034)"><polygon points="26.47 60.45 101.11 17.36 175.75 60.45 175.75 146.64 101.11 189.73 26.47 146.64 26.47 60.45" style="fill:none;stroke:#fff;stroke-linecap:round;stroke-linejoin:round;stroke-width:2px"/><polygon points="31.08 63.12 101.11 22.68 171.14 63.12 171.14 143.98 101.11 184.41 31.08 143.98 31.08 63.12" style="fill:none;stroke:#fff;stroke-linecap:round;stroke-linejoin:round;stroke-width:2px"/></g><text transform="translate(54.33 146.22)" style="font-size:11.908419609069824px;fill:#fff;font-family:Roboto-Bold, Roboto;font-weight:700;letter-spacing:0.20001276539549542em">FINES<tspan x="44.33" y="0" style="letter-spacing:0.17073660416294442em">T</tspan><tspan x="53.73" y="0" xml:space="preserve"> BEER</tspan></text><g style="clip-path:url(#f4b46ee6-ad28-4a3f-b387-f2e098ae6f6f)"><path d="M126.49,111.65V37.87a9.17,9.17,0,0,1-2.18.27,8.85,8.85,0,0,1-5.25-1.7A14.11,14.11,0,0,1,109.7,40a13.87,13.87,0,0,1-7.53-2.19,11.5,11.5,0,0,1-14.56.58,11,11,0,0,1-11,.75v72.49l-2.74,7.26a2.94,2.94,0,0,0,2.75,4h49.82a3,3,0,0,0,2.76-4Z" style="fill:#fff"/><polygon points="80.15 113.9 78.17 119.12 124.97 119.12 123 113.9 80.15 113.9" style="fill:#ffb201"/><path d="M112.31,52.45v19A2.65,2.65,0,0,1,110,74.14a2.58,2.58,0,0,1-2.84-2.57V52.45a4.38,4.38,0,0,0-4.38-4.38H80.66v63h41.83v-63h-5.8A4.38,4.38,0,0,0,112.31,52.45Z" style="fill:#ffca00"/><path d="M124.31,21.29a7.34,7.34,0,0,0-2.58.47,12.58,12.58,0,0,0-19.87-6.13,9.56,9.56,0,0,0-17.4,4A9.57,9.57,0,1,0,87.66,36,10,10,0,0,0,102,35.41a12.55,12.55,0,0,0,17-1.47,7.45,7.45,0,1,0,5.32-12.65Z" style="fill:#fff"/><circle cx="90.05" cy="104.93" r="1.44" style="fill:#fff"/><path d="M104.71,91a1.44,1.44,0,1,1-1.44-1.44A1.44,1.44,0,0,1,104.71,91Z" style="fill:#fff"/><path d="M89.52,60.71a.91.91,0,1,1-.91-.92A.91.91,0,0,1,89.52,60.71Z" style="fill:#fff"/><circle cx="119.15" cy="56.68" r="0.91" style="fill:#fff"/><circle cx="99.38" cy="67.04" r="1.44" style="fill:#fff"/><path d="M115.88,81.13a2.78,2.78,0,1,1-2.77-2.77A2.77,2.77,0,0,1,115.88,81.13Z" style="fill:#fff"/><path d="M92.29,83.37a2.78,2.78,0,1,1-2.77-2.78A2.78,2.78,0,0,1,92.29,83.37Z" style="fill:#fff"/><path d="M117.25,99.84a2.78,2.78,0,1,1-2.78-2.77A2.77,2.77,0,0,1,117.25,99.84Z" style="fill:#fff"/><path d="M100.82,53.49a1.45,1.45,0,1,1-1.44-1.44A1.44,1.44,0,0,1,100.82,53.49Z" style="fill:#fff"/></g><line x1="1" y1="79.16" x2="201.21" y2="79.16" style="fill:none;stroke:#fff;stroke-linecap:round;stroke-linejoin:round;stroke-width:2px"/><line x1="1" y1="129.63" x2="201.21" y2="129.63" style="fill:none;stroke:#fff;stroke-linecap:round;stroke-linejoin:round;stroke-width:2px"/><text transform="translate(36.98 70.9)" style="font-size:10.32859992980957px;fill:#ffca00;font-family:Roboto-Medium, Roboto;font-weight:500;letter-spacing:0.1999718937257821em">ESTB</text><text transform="translate(135.66 70.9)" style="font-size:10.32859992980957px;fill:#ffca00;font-family:Roboto-Medium, Roboto;font-weight:500;letter-spacing:0.1999718937257821em">1982</text><polygon points="101.11 153.83 103.11 157.87 107.57 158.52 104.34 161.67 105.1 166.12 101.11 164.02 97.11 166.12 97.88 161.67 94.64 158.52 99.11 157.87 101.11 153.83" style="fill:#1b1b1b"/></svg>